<svg width="36" height="36" viewBox="0 0 36 36" fill="none" xmlns="http://www.w3.org/2000/svg">
<mask id="path-1-inside-1_24_109" fill="white">
<path d="M34.8314 8.6145L30.3149 2.5125C29.7594 1.736 29.027 1.10305 28.1781 0.666115C27.3293 0.229176 26.3885 0.000830581 25.4339 2.64358e-06H10.5689C9.6188 -0.000889102 8.68212 0.223837 7.83589 0.655687C6.98966 1.08754 6.25808 1.71417 5.70135 2.484L1.10385 8.6295C0.355298 9.68504 -0.0312795 10.9546 0.00197968 12.2482C0.0352389 13.5418 0.486546 14.7898 1.28835 15.8055L14.4764 34.2975C14.8966 34.8297 15.4323 35.2595 16.0429 35.5544C16.6536 35.8493 17.3232 36.0017 18.0014 36C18.6911 35.9986 19.3714 35.839 19.9898 35.5335C20.6082 35.2279 21.1482 34.7845 21.5684 34.2375L34.6514 15.951C35.4891 14.9205 35.9612 13.6411 35.9938 12.3135C36.0264 10.9858 35.6175 9.68487 34.8314 8.6145ZM27.8894 4.2765L32.4164 10.3935C32.4404 10.4265 32.4464 10.4655 32.4704 10.5H25.1324L22.9904 3H25.4339C25.9153 3.0015 26.3894 3.11814 26.8165 3.34021C27.2437 3.56227 27.6115 3.8833 27.8894 4.2765ZM18.0014 28.677L13.9514 13.5H22.0514L18.0014 28.677ZM13.9904 10.5L16.1324 3H19.8704L22.0124 10.5H13.9904ZM8.12685 4.2555C8.40518 3.86759 8.77177 3.55143 9.19638 3.33313C9.62098 3.11483 10.0914 3.00064 10.5689 3H13.0124L10.8704 10.5H3.47835C3.49935 10.467 3.50535 10.4265 3.52935 10.395L8.12685 4.2555ZM3.67335 13.9875C3.56505 13.8345 3.4721 13.6712 3.39585 13.5H10.8494L15.3404 30.345L3.67335 13.9875ZM20.6579 30.36L25.1579 13.5H32.6369C32.5402 13.7239 32.4179 13.9358 32.2724 14.1315L20.6579 30.36Z"/>
</mask>
<path d="M34.8314 8.6145L30.3149 2.5125C29.7594 1.736 29.027 1.10305 28.1781 0.666115C27.3293 0.229176 26.3885 0.000830581 25.4339 2.64358e-06H10.5689C9.6188 -0.000889102 8.68212 0.223837 7.83589 0.655687C6.98966 1.08754 6.25808 1.71417 5.70135 2.484L1.10385 8.6295C0.355298 9.68504 -0.0312795 10.9546 0.00197968 12.2482C0.0352389 13.5418 0.486546 14.7898 1.28835 15.8055L14.4764 34.2975C14.8966 34.8297 15.4323 35.2595 16.0429 35.5544C16.6536 35.8493 17.3232 36.0017 18.0014 36C18.6911 35.9986 19.3714 35.839 19.9898 35.5335C20.6082 35.2279 21.1482 34.7845 21.5684 34.2375L34.6514 15.951C35.4891 14.9205 35.9612 13.6411 35.9938 12.3135C36.0264 10.9858 35.6175 9.68487 34.8314 8.6145ZM27.8894 4.2765L32.4164 10.3935C32.4404 10.4265 32.4464 10.4655 32.4704 10.5H25.1324L22.9904 3H25.4339C25.9153 3.0015 26.3894 3.11814 26.8165 3.34021C27.2437 3.56227 27.6115 3.8833 27.8894 4.2765ZM18.0014 28.677L13.9514 13.5H22.0514L18.0014 28.677ZM13.9904 10.5L16.1324 3H19.8704L22.0124 10.5H13.9904ZM8.12685 4.2555C8.40518 3.86759 8.77177 3.55143 9.19638 3.33313C9.62098 3.11483 10.0914 3.00064 10.5689 3H13.0124L10.8704 10.5H3.47835C3.49935 10.467 3.50535 10.4265 3.52935 10.395L8.12685 4.2555ZM3.67335 13.9875C3.56505 13.8345 3.4721 13.6712 3.39585 13.5H10.8494L15.3404 30.345L3.67335 13.9875ZM20.6579 30.36L25.1579 13.5H32.6369C32.5402 13.7239 32.4179 13.9358 32.2724 14.1315L20.6579 30.36Z" fill="#222D33"/>
<path d="M34.8314 8.6145L52.0252 -4.01417L52.002 -4.04579L51.9786 -4.07733L34.8314 8.6145ZM30.3149 2.5125L12.9634 14.9236L13.0643 15.0648L13.1676 15.2043L30.3149 2.5125ZM25.4339 2.64358e-06L25.4524 -21.3333L25.4431 -21.3333H25.4339V2.64358e-06ZM10.5689 2.64358e-06L10.5488 21.3333L10.5588 21.3333H10.5689V2.64358e-06ZM5.70135 2.484L22.7835 15.2633L22.8869 15.1251L22.988 14.9853L5.70135 2.484ZM1.10385 8.6295L-15.9783 -4.14981L-16.1408 -3.93255L-16.2978 -3.71124L1.10385 8.6295ZM1.28835 15.8055L18.6571 3.41855L18.3551 2.99508L18.0328 2.58684L1.28835 15.8055ZM14.4764 34.2975L-2.89243 46.6845L-2.58934 47.1094L-2.26582 47.5191L14.4764 34.2975ZM18.0014 36L17.9587 14.6667L17.9484 14.6667L18.0014 36ZM21.5684 34.2375L38.4875 47.2319L38.7079 46.9449L38.9185 46.6506L21.5684 34.2375ZM34.6514 15.951L18.0975 2.49434L17.6833 3.00388L17.3012 3.53793L34.6514 15.951ZM27.8894 4.2765L10.466 16.5865L10.6015 16.7784L10.7413 16.9673L27.8894 4.2765ZM32.4164 10.3935L49.6694 -2.15416L49.6172 -2.22592L49.5644 -2.29725L32.4164 10.3935ZM32.4704 10.5V31.8333H73.2985L49.983 -1.68271L32.4704 10.5ZM25.1324 10.5L4.61922 16.3586L9.03882 31.8333H25.1324V10.5ZM22.9904 3V-18.3333H-5.28878L2.47722 8.85855L22.9904 3ZM25.4339 3L25.5 -18.3332L25.4669 -18.3333H25.4339V3ZM18.0014 28.677L-2.61071 34.1774L18.0014 111.419L38.6134 34.1774L18.0014 28.677ZM13.9514 13.5V-7.83333H-13.8213L-6.66071 19.0004L13.9514 13.5ZM22.0514 13.5L42.6634 19.0004L49.824 -7.83333H22.0514V13.5ZM13.9904 10.5L-6.52278 4.64145L-14.2888 31.8333H13.9904V10.5ZM16.1324 3V-18.3333H0.0388207L-4.38078 -2.85855L16.1324 3ZM19.8704 3L40.3835 -2.85855L35.9639 -18.3333H19.8704V3ZM22.0124 10.5V31.8333H50.2915L42.5255 4.64145L22.0124 10.5ZM8.12685 4.2555L25.203 17.0428L25.3334 16.8687L25.4602 16.692L8.12685 4.2555ZM10.5689 3V-18.3333H10.5546L10.5402 -18.3333L10.5689 3ZM13.0124 3L33.5255 8.85855L41.2915 -18.3333H13.0124V3ZM10.8704 10.5V31.8333H26.9639L31.3835 16.3586L10.8704 10.5ZM3.47835 10.5L-14.5198 -0.953344L-35.384 31.8333H3.47835V10.5ZM3.52935 10.395L20.4986 23.3239L20.5523 23.2533L20.6055 23.1823L3.52935 10.395ZM3.67335 13.9875L-13.7381 26.3144L-13.7165 26.3449L-13.6948 26.3753L3.67335 13.9875ZM3.39585 13.5V-7.83333H-29.4559L-16.0928 22.1778L3.39585 13.5ZM10.8494 13.5L31.4627 8.00434L27.2402 -7.83333H10.8494V13.5ZM15.3404 30.345L-2.02779 42.7328L35.9537 24.8493L15.3404 30.345ZM20.6579 30.36L0.0460603 24.8586L38.006 42.7758L20.6579 30.36ZM25.1579 13.5V-7.83333H8.77168L4.54606 7.99863L25.1579 13.5ZM32.6369 13.5L52.2234 21.9545L65.0812 -7.83333H32.6369V13.5ZM32.2724 14.1315L15.1544 1.40021L15.0378 1.55689L14.9242 1.71568L32.2724 14.1315ZM51.9786 -4.07733L47.4621 -10.1793L13.1676 15.2043L17.6841 21.3063L51.9786 -4.07733ZM47.6664 -9.89864C45.1386 -13.4326 41.805 -16.3132 37.9419 -18.3018L18.4144 19.634C16.2489 18.5193 14.3803 16.9046 12.9634 14.9236L47.6664 -9.89864ZM37.9419 -18.3018C34.0787 -20.2903 29.7973 -21.3296 25.4524 -21.3333L25.4154 21.3333C22.9798 21.3312 20.5799 20.7487 18.4144 19.634L37.9419 -18.3018ZM25.4339 -21.3333H10.5689V21.3333H25.4339V-21.3333ZM10.5889 -21.3333C6.26087 -21.3374 1.99376 -20.3136 -1.86128 -18.3463L17.5331 19.6577C15.3705 20.7613 12.9767 21.3356 10.5488 21.3333L10.5889 -21.3333ZM-1.86128 -18.3463C-5.71631 -16.379 -9.04908 -13.5244 -11.5853 -10.0173L22.988 14.9853C21.5652 16.9527 19.6956 18.5541 17.5331 19.6577L-1.86128 -18.3463ZM-11.3808 -10.2953L-15.9783 -4.14981L18.186 21.4088L22.7835 15.2633L-11.3808 -10.2953ZM-16.2978 -3.71124C-19.7125 1.10389 -21.476 6.89543 -21.3243 12.7965L21.3283 11.6999C21.4135 15.0138 20.4231 18.2662 18.5055 20.9702L-16.2978 -3.71124ZM-21.3243 12.7965C-21.1726 18.6976 -19.1138 24.3909 -15.4561 29.0242L18.0328 2.58684C20.0869 5.18878 21.2431 8.38598 21.3283 11.6999L-21.3243 12.7965ZM-16.0804 28.1925L-2.89243 46.6845L31.8451 21.9105L18.6571 3.41855L-16.0804 28.1925ZM-2.26582 47.5191C0.156898 50.5869 3.24481 53.0644 6.76487 54.7645L25.321 16.3443C27.6198 17.4545 29.6364 19.0724 31.2185 21.0759L-2.26582 47.5191ZM6.76487 54.7645C10.2849 56.4646 14.1452 57.343 18.0543 57.3333L17.9484 14.6667C20.5013 14.6604 23.0222 15.234 25.321 16.3443L6.76487 54.7645ZM18.044 57.3333C21.9972 57.3254 25.8959 56.4106 29.4401 54.6594L10.5394 16.4075C12.8468 15.2674 15.385 14.6719 17.9587 14.6667L18.044 57.3333ZM29.4401 54.6594C32.9843 52.9082 36.0795 50.3672 38.4875 47.2319L4.64924 21.2431C6.21694 19.2019 8.23202 17.5476 10.5394 16.4075L29.4401 54.6594ZM38.9185 46.6506L52.0015 28.3641L17.3012 3.53793L4.21823 21.8244L38.9185 46.6506ZM51.2052 29.4077C55.0215 24.7131 57.1723 18.885 57.3207 12.8367L14.6669 11.7902C14.7501 8.39732 15.9567 5.1279 18.0975 2.49434L51.2052 29.4077ZM57.3207 12.8367C57.4691 6.78849 55.6066 0.861932 52.0252 -4.01417L17.6375 21.2432C15.6284 18.5078 14.5836 15.1831 14.6669 11.7902L57.3207 12.8367ZM10.7413 16.9673L15.2683 23.0843L49.5644 -2.29725L45.0374 -8.41425L10.7413 16.9673ZM15.1633 22.9412C14.2411 21.6732 13.6312 20.5373 13.2597 19.7761C13.0754 19.3985 12.9375 19.087 12.8536 18.8928C12.8109 18.794 12.7771 18.7135 12.7559 18.663C12.7452 18.6372 12.7365 18.6162 12.7308 18.6026C12.7255 18.5896 12.7213 18.5796 12.721 18.5788C12.7162 18.5671 12.7313 18.6038 12.7466 18.6406C12.7643 18.6832 12.7948 18.7563 12.8333 18.8464C12.9092 19.0239 13.037 19.3165 13.207 19.6723C13.5504 20.3908 14.1131 21.4686 14.9577 22.6827L49.983 -1.68271C50.8156 -0.485874 51.3686 0.574105 51.7033 1.27455C51.8691 1.62133 51.9928 1.90487 52.0648 2.07324C52.1014 2.15888 52.13 2.22736 52.1458 2.26547C52.1592 2.29769 52.1724 2.3298 52.1657 2.31356C52.1643 2.31024 52.1469 2.26779 52.1251 2.21575C52.1021 2.16068 52.0664 2.07568 52.0217 1.97237C51.934 1.76919 51.792 1.44874 51.6034 1.06235C51.2233 0.283458 50.6036 -0.869654 49.6694 -2.15416L15.1633 22.9412ZM32.4704 -10.8333H25.1324V31.8333H32.4704V-10.8333ZM45.6455 4.64145L43.5035 -2.85855L2.47722 8.85855L4.61922 16.3586L45.6455 4.64145ZM22.9904 24.3333H25.4339V-18.3333H22.9904V24.3333ZM25.3677 24.3332C22.446 24.3242 19.5689 23.6163 16.9765 22.2686L36.6566 -15.5882C33.2099 -17.38 29.3846 -18.3212 25.5 -18.3332L25.3677 24.3332ZM16.9765 22.2686C14.3842 20.921 12.1519 18.9727 10.466 16.5865L45.3127 -8.03354C43.0712 -11.2061 40.1032 -13.7965 36.6566 -15.5882L16.9765 22.2686ZM38.6134 23.1766L34.5634 7.99965L-6.66071 19.0004L-2.61071 34.1774L38.6134 23.1766ZM13.9514 34.8333H22.0514V-7.83333H13.9514V34.8333ZM1.43929 7.99965L-2.61071 23.1766L38.6134 34.1774L42.6634 19.0004L1.43929 7.99965ZM34.5035 16.3586L36.6455 8.85855L-4.38078 -2.85855L-6.52278 4.64145L34.5035 16.3586ZM16.1324 24.3333H19.8704V-18.3333H16.1324V24.3333ZM-0.642776 8.85855L1.49922 16.3586L42.5255 4.64145L40.3835 -2.85855L-0.642776 8.85855ZM22.0124 -10.8333H13.9904V31.8333H22.0124V-10.8333ZM25.4602 16.692C23.7663 19.0529 21.535 20.9772 18.9508 22.3058L-0.558009 -15.6396C-3.99149 -13.8743 -6.9559 -11.3178 -9.20652 -8.18095L25.4602 16.692ZM18.9508 22.3058C16.3665 23.6345 13.5033 24.3294 10.5975 24.3333L10.5402 -18.3333C6.67957 -18.3281 2.87548 -17.4048 -0.558009 -15.6396L18.9508 22.3058ZM10.5689 24.3333H13.0124V-18.3333H10.5689V24.3333ZM-7.50078 -2.85855L-9.64278 4.64145L31.3835 16.3586L33.5255 8.85855L-7.50078 -2.85855ZM10.8704 -10.8333H3.47835V31.8333H10.8704V-10.8333ZM21.4765 21.9533C22.2804 20.69 22.7854 19.6012 23.0494 18.9952C23.184 18.6864 23.2831 18.4389 23.3295 18.3217C23.3534 18.2615 23.372 18.2137 23.3765 18.2021C23.3878 18.1732 23.374 18.2087 23.3662 18.2285C23.3459 18.2803 23.2706 18.4726 23.1674 18.7176C23.061 18.9701 22.9001 19.3382 22.687 19.7751C22.2617 20.6466 21.5658 21.9231 20.4986 23.3239L-13.4399 -2.53392C-14.5191 -1.11736 -15.2247 0.175981 -15.6585 1.06503C-15.876 1.51067 -16.0408 1.88764 -16.151 2.14913C-16.258 2.40309 -16.3369 2.60447 -16.3608 2.66542C-16.3703 2.68969 -16.3859 2.72981 -16.3764 2.70542C-16.3737 2.69838 -16.3568 2.65513 -16.3348 2.59948C-16.2919 2.4913 -16.1965 2.25291 -16.0658 1.95297C-15.8096 1.36485 -15.3132 0.293506 -14.5198 -0.953344L21.4765 21.9533ZM20.6055 23.1823L25.203 17.0428L-8.94932 -8.53181L-13.5468 -2.39231L20.6055 23.1823ZM21.0848 1.6606C21.7872 2.65273 22.39 3.71173 22.8845 4.82223L-16.0928 22.1778C-15.4458 23.6307 -14.6571 25.0163 -13.7381 26.3144L21.0848 1.6606ZM3.39585 34.8333H10.8494V-7.83333H3.39585V34.8333ZM-9.76396 18.9957L-5.27296 35.8407L35.9537 24.8493L31.4627 8.00434L-9.76396 18.9957ZM32.7085 17.9572L21.0415 1.59966L-13.6948 26.3753L-2.02779 42.7328L32.7085 17.9572ZM41.2696 35.8614L45.7696 19.0014L4.54606 7.99863L0.0460603 24.8586L41.2696 35.8614ZM25.1579 34.8333H32.6369V-7.83333H25.1579V34.8333ZM13.0503 5.04554C13.6082 3.75306 14.3143 2.52976 15.1544 1.40021L49.3903 26.8628C50.5215 25.3419 51.4722 23.6947 52.2234 21.9545L13.0503 5.04554ZM14.9242 1.71568L3.3097 17.9442L38.006 42.7758L49.6205 26.5473L14.9242 1.71568Z" fill="#222D33" mask="url(#path-1-inside-1_24_109)"/>
</svg>
