<svg width="36" height="36" viewBox="0 0 36 36" fill="none" xmlns="http://www.w3.org/2000/svg">
<path d="M35.34 32.1678L28.3723 25.1972C33.5859 18.23 32.1643 8.35551 25.1972 3.14193C18.23 -2.07166 8.35551 -0.650082 3.14193 6.31708C-2.07166 13.2842 -0.650082 23.1587 6.31708 28.3723C11.9137 32.5603 19.6005 32.5603 25.1972 28.3723L32.1678 35.343C33.0438 36.219 34.4641 36.219 35.34 35.343C36.216 34.467 36.216 33.0468 35.34 32.1708L35.34 32.1678ZM15.8152 27.0269C9.62313 27.0269 4.60351 22.0073 4.60351 15.8152C4.60351 9.62313 9.62313 4.60351 15.8152 4.60351C22.0073 4.60351 27.0269 9.62313 27.0269 15.8152C27.0203 22.0045 22.0046 27.0203 15.8152 27.0269Z" fill="#222D33"/>
</svg>
