<svg width="36" height="36" viewBox="0 0 36 36" fill="none" xmlns="http://www.w3.org/2000/svg">
<path d="M15.432 16.6007C18.0645 16.0937 20.745 17.9192 20.982 20.5892C21.219 23.2592 19.122 25.5002 16.5 25.5002H10.5C9.4785 25.5002 8.7555 24.5162 9.0585 23.5397C9.807 21.1277 11.9625 17.2682 15.432 16.6007ZM30 18.0002C29.172 18.0002 28.5 18.6707 28.5 19.5002V28.5002C28.5 30.9812 26.481 33.0002 24 33.0002H7.5C5.019 33.0002 3 30.9812 3 28.5002V12.0002C3 9.51919 5.019 7.50019 7.5 7.50019H18C18.828 7.50019 19.5 6.82969 19.5 6.00019C19.5 5.17069 18.828 4.50019 18 4.50019H7.5C3.3645 4.50019 0 7.86469 0 12.0002V28.5002C0 32.6357 3.3645 36.0002 7.5 36.0002H24C28.1355 36.0002 31.5 32.6357 31.5 28.5002V19.5002C31.5 18.6707 30.828 18.0002 30 18.0002ZM34.7085 1.29469C32.985 -0.430312 30.1905 -0.431812 28.4655 1.29169C28.407 1.35019 18.3735 12.2117 18.3735 12.2117C17.6955 12.9707 17.979 14.1467 18.909 14.5592C18.9195 14.5637 18.93 14.5682 18.9405 14.5727C19.5195 14.8322 20.1975 14.6747 20.619 14.2007L30.5355 3.46519C31.0575 2.88169 31.9545 2.83219 32.5365 3.35419C32.556 3.37219 32.574 3.38869 32.5935 3.40819C33.147 3.96019 33.147 4.85569 32.595 5.40919L32.5935 5.41069L22.275 15.4397C21.7785 15.9362 21.708 16.7057 22.0905 17.2952C22.0965 17.3042 22.1025 17.3132 22.107 17.3207C22.6155 18.1142 23.724 18.2297 24.39 17.5637L34.707 7.53619C36.429 5.81119 36.429 3.01669 34.707 1.29169L34.7085 1.29469Z" fill="#222D33"/>
</svg>
