<svg width="36" height="27" viewBox="0 0 36 27" fill="none" xmlns="http://www.w3.org/2000/svg">
<path d="M27.75 0H8.25C3.7005 0 0 3.702 0 8.25V18.75C0 23.298 3.7005 27 8.25 27H27.75C32.2995 27 36 23.298 36 18.75V8.25C36 3.702 32.2995 0 27.75 0ZM31.5 18.75C31.5 20.8185 29.817 22.5 27.75 22.5H8.25C6.183 22.5 4.5 20.8185 4.5 18.75V8.25C4.5 6.1815 6.183 4.5 8.25 4.5H27.75C29.817 4.5 31.5 6.1815 31.5 8.25V18.75ZM28.5 9.75C28.5 10.992 27.4935 12 26.25 12H21.75C20.5065 12 19.5 10.992 19.5 9.75C19.5 8.508 20.5065 7.5 21.75 7.5H26.25C27.4935 7.5 28.5 8.508 28.5 9.75ZM28.5 17.25C28.5 18.492 27.4935 19.5 26.25 19.5H21.75C20.5065 19.5 19.5 18.492 19.5 17.25C19.5 16.008 20.5065 15 21.75 15H26.25C27.4935 15 28.5 16.008 28.5 17.25ZM17.94 11.7885C18.084 12.183 17.9655 12.6255 17.6445 12.897L15.279 14.8245L16.257 17.805C16.3905 18.2085 16.2555 18.6525 15.918 18.912C15.5805 19.17 15.117 19.1895 14.7615 18.9585L12.0075 17.1645L9.3 18.9765C9.132 19.089 8.937 19.146 8.7435 19.146C8.532 19.146 8.3205 19.0785 8.1435 18.9465C7.803 18.6915 7.662 18.2505 7.7895 17.8455L8.73 14.829L6.3525 12.894C6.033 12.6225 5.916 12.18 6.0615 11.787C6.2055 11.394 6.5805 11.1315 7.0005 11.1315H10.002L11.064 8.151C11.2095 7.7595 11.583 7.5 12.0015 7.5C12.42 7.5 12.7935 7.7595 12.939 8.151L14.001 11.1315H17.0025C17.4225 11.1315 17.7975 11.394 17.9415 11.7885H17.94Z" fill="#222D33"/>
</svg>
